<svg width="132" height="132" viewBox="0 0 132 132" fill="none" xmlns="http://www.w3.org/2000/svg">
<circle cx="66" cy="66" r="66" fill="url(#paint0_linear_8_92)"/>
<path d="M68.5497 28.7861C67.7172 30.0002 65.6358 32.9835 63.9013 35.4812C62.2015 37.9441 59.6345 41.6906 58.1775 43.8067C56.7553 45.888 53.876 50.1202 51.7947 53.1728C49.6786 56.2255 46.4872 60.9086 44.6833 63.5797C42.8448 66.2508 40.4859 69.6851 39.4105 71.2114C34.6581 77.9065 29.8709 85.1913 29.4546 86.3013C27.7895 90.9844 30.8769 96.8816 35.8028 98.3039C37.121 98.6855 37.9882 98.7549 38.3351 98.5467C38.6127 98.3733 40.59 95.6675 42.7407 92.5108C44.8915 89.3887 47.6666 85.33 48.9154 83.5262C50.1643 81.7223 52.4885 78.3574 54.0495 76.0679C55.6452 73.7437 59.8773 67.569 63.485 62.2962C69.9373 52.8953 70.076 52.7219 70.6311 53.4504C73.3369 57.0234 80.6564 68.1587 81.3155 69.8238C84.5069 77.5943 76.6671 86.1279 68.515 83.7343C65.9827 83.0058 64.0401 81.5489 62.1321 78.9818C61.2996 77.8371 60.5364 76.8658 60.4324 76.8311C60.363 76.7964 59.5998 77.7677 58.7673 79.0165C57.9347 80.2654 55.9574 83.1099 54.3964 85.3647C52.8354 87.6195 51.5518 89.5622 51.5518 89.7009C51.5518 89.8744 52.2109 90.6028 53.0435 91.366C58.6632 96.7429 64.1095 98.963 71.4983 98.963C76.0773 98.963 78.575 98.3733 82.9459 96.2225C94.6362 90.4641 100.152 75.8945 95.1566 64.0307C94.0118 61.2902 93.1446 59.8332 90.1613 55.497C87.8371 52.1669 84.0559 46.6512 73.0593 30.6247C69.9373 26.0803 70.2842 26.2191 68.5497 28.7861Z" fill="white"/>
<defs>
<linearGradient id="paint0_linear_8_92" x1="11" y1="127" x2="104.5" y2="18" gradientUnits="userSpaceOnUse">
<stop stop-color="#9266FF"/>
<stop offset="0.544714" stop-color="#3A6CFF"/>
<stop offset="1" stop-color="#04CCFF"/>
</linearGradient>
</defs>
</svg>
